<svg aria-hidden="true" style="position: absolute; width: 0; height: 0; overflow: hidden;" version="1.1" xmlns="http://www.w3.org/2000/svg" xmlns:xlink="http://www.w3.org/1999/xlink">
<defs>
<symbol id="icon-arrow-back" viewBox="0 0 32 32">
<path fill="#fff" style="fill: var(--color1, #fff)" d="M20.543 24.209l-7.543-7.543 7.543-7.543 0.943 0.943-6.6 6.6 6.6 6.6-0.943 0.943z"></path>
</symbol>
<symbol id="icon-burger" viewBox="0 0 58 32">
<path fill="#fff" style="fill: var(--color1, #fff)" d="M20.543 24.209l-7.543-7.543 7.543-7.543 0.943 0.943-6.6 6.6 6.6 6.6-0.943 0.943z"></path>
</symbol>
<symbol id="icon-call" viewBox="0 0 32 32">
<path fill="#43ffd2" style="fill: var(--color2, #43ffd2)" d="M26.679 32h-21.354c-2.669 0-3.372-0.391-4.153-1.172s-1.185-1.495-1.172-4.162v-21.333c0-2.667 0.391-3.38 1.172-4.161s1.484-1.172 4.153-1.172h21.354c1.104 0 2.687 0.017 4.004 1.333s1.317 2.896 1.317 4v21.333c0.018 2.667-0.391 3.38-1.172 4.162s-1.479 1.172-4.149 1.172zM10 12v-3c0-0.562-0.172-1.115-0.516-1.656s-0.724-0.927-1.141-1.156-0.74-0.24-0.969-0.031l-2.281 2.312c-0.625 0.625-0.979 1.464-1.062 2.516s0.078 2.198 0.484 3.437c0.406 1.24 1.057 2.552 1.953 3.938s1.969 2.703 3.219 3.953c1.25 1.25 2.568 2.323 3.953 3.219s2.698 1.552 3.937 1.969c1.24 0.417 2.385 0.583 3.437 0.5s1.891-0.438 2.516-1.062l2.312-2.313c0.208-0.208 0.198-0.526-0.031-0.953s-0.615-0.812-1.156-1.156c-0.542-0.344-1.094-0.516-1.656-0.516h-3l-2.031 1.25c-0.937-0.25-2.094-0.927-3.469-2.031s-2.614-2.344-3.719-3.719c-1.104-1.375-1.781-2.531-2.031-3.469l1.25-2.031zM21.937 17l2.031 0.344c-0.167-2.5-1.135-4.635-2.906-6.406s-3.896-2.74-6.375-2.906l0.312 2.031c1.812 0.229 3.364 0.99 4.656 2.281s2.052 2.844 2.281 4.656zM15.375 12.156l0.375 2.25c0.812 0.396 1.427 1.010 1.844 1.844l2.25 0.375c-0.271-1.104-0.807-2.057-1.609-2.859s-1.755-1.338-2.859-1.609zM14 4l0.344 2.031c2.083 0.042 4.005 0.589 5.765 1.641s3.167 2.458 4.219 4.219 1.599 3.682 1.641 5.766l2.031 0.344c0-1.896-0.37-3.708-1.109-5.438s-1.734-3.219-2.984-4.469c-1.25-1.25-2.74-2.245-4.469-2.984s-3.542-1.109-5.437-1.109z"></path>
</symbol>
<symbol id="icon-close-cross" viewBox="0 0 32 32">
<path fill="#43ffd2" style="fill: var(--color2, #43ffd2)" d="M23.875 7.22l0.905 0.905-16.654 16.653-0.905-0.904 16.654-16.653z"></path>
<path fill="#43ffd2" style="fill: var(--color2, #43ffd2)" d="M8.125 7.22l16.654 16.653-0.905 0.906-16.654-16.653 0.905-0.906z"></path>
</symbol>
<symbol id="icon-korzina" viewBox="0 0 36 32">
<path fill="#fff" style="fill: var(--color1, #fff)" d="M35.988 29.779l-2.391-21.334c-0.054-0.489-0.289-0.942-0.659-1.27s-0.849-0.51-1.346-0.509h-6.226c-0.168-1.822-1.016-3.515-2.379-4.749s-3.141-1.917-4.987-1.917c-1.845 0-3.624 0.684-4.987 1.917s-2.211 2.927-2.379 4.749h-6.226c-0.497-0-0.976 0.181-1.346 0.509s-0.605 0.781-0.659 1.27l-2.391 21.334c-0.031 0.279-0.003 0.562 0.084 0.83s0.229 0.515 0.418 0.724 0.421 0.377 0.68 0.492c0.259 0.115 0.54 0.174 0.823 0.174h31.965c0.284 0 0.564-0.059 0.823-0.174s0.491-0.283 0.68-0.492 0.332-0.456 0.418-0.724c0.086-0.268 0.115-0.551 0.084-0.83zM18 1.332c1.488 0.002 2.924 0.547 4.033 1.53s1.815 2.337 1.982 3.803h-12.028c0.167-1.466 0.872-2.82 1.982-3.803s2.545-1.528 4.033-1.53zM34.484 30.445c-0.063 0.070-0.14 0.126-0.226 0.165s-0.18 0.058-0.275 0.057h-31.965c-0.095 0-0.188-0.020-0.274-0.058s-0.164-0.094-0.227-0.164c-0.063-0.070-0.111-0.152-0.139-0.242s-0.038-0.184-0.028-0.277l2.391-21.334c0.018-0.163 0.096-0.314 0.22-0.423s0.283-0.17 0.449-0.17h6.194v4.667c0 0.177 0.071 0.346 0.197 0.471s0.297 0.195 0.476 0.195c0.178 0 0.349-0.070 0.476-0.195s0.197-0.295 0.197-0.471v-4.667h12.105v4.667c0 0.177 0.071 0.346 0.197 0.471s0.297 0.195 0.476 0.195c0.178 0 0.349-0.070 0.475-0.195s0.197-0.295 0.197-0.471v-4.667h6.194c0.166-0 0.325 0.060 0.449 0.17s0.202 0.26 0.22 0.423l2.391 21.334c0.011 0.093 0.002 0.188-0.027 0.277s-0.077 0.172-0.14 0.241z"></path>
</symbol>
<symbol id="icon-long-desk-arrow" viewBox="0 0 427 32">
<path fill="#43ffd2" style="fill: var(--color2, #43ffd2)" d="M426.667 16l-26.667-15.396v30.792l26.667-15.396zM0 18.667h402.667v-5.333h-402.667v5.333z"></path>
</symbol>
<symbol id="icon-minus" viewBox="0 0 96 32">
<path fill="#43ffd2" style="fill: var(--color2, #43ffd2)" d="M5.973 5.12h87.893v18.773h-87.893v-18.773z"></path>
</symbol>
<symbol id="icon-phone" viewBox="0 0 32 32">
<path fill="#43ffd2" style="fill: var(--color2, #43ffd2)" d="M26 29.333c1.103 0 2-0.897 2-2v-4.667c0-1.103-0.897-2-2-2-1.56 0-3.093-0.245-4.56-0.729-0.351-0.111-0.725-0.124-1.082-0.039s-0.685 0.266-0.948 0.523l-1.92 1.92c-3.319-1.802-6.044-4.526-7.847-7.844l1.904-1.916c0.549-0.509 0.747-1.284 0.512-2.029-0.483-1.469-0.728-3.006-0.725-4.552 0-1.103-0.897-2-2-2h-4.667c-1.103 0-2 0.897-2 2 0 12.867 10.467 23.333 23.333 23.333zM4.667 5.333h4.667c0.177 0 0.346 0.070 0.471 0.195s0.195 0.295 0.195 0.471c0 1.703 0.267 3.375 0.791 4.96 0.039 0.115 0.043 0.239 0.013 0.356s-0.093 0.224-0.182 0.306l-2.608 2.621c2.183 4.304 5.407 7.528 9.731 9.729l2.599-2.6c0.089-0.088 0.2-0.15 0.321-0.179s0.248-0.026 0.367 0.011c1.595 0.528 3.267 0.795 4.969 0.795 0.367 0 0.667 0.3 0.667 0.667v4.667c0 0.367-0.3 0.667-0.667 0.667-12.131 0-22-9.869-22-22 0-0.177 0.070-0.346 0.195-0.471s0.295-0.195 0.471-0.195z"></path>
</symbol>
<symbol id="icon-pink-arrow" viewBox="0 0 213 32">
<path fill="#d978ac" style="fill: var(--color3, #d978ac)" d="M213.333 16l-26.667-15.396v30.792l26.667-15.396zM0 18.667h189.333v-5.333h-189.333v5.333z"></path>
</symbol>
<symbol id="icon-plus" viewBox="0 0 30 32">
<path fill="#43ffd2" style="fill: var(--color2, #43ffd2)" d="M13.739 17.408h-11.861v-3.413h11.861v-12.971h3.499v12.971h11.861v3.413h-11.861v13.312h-3.499v-13.312z"></path>
</symbol>
<symbol id="icon-rounded-arrow" viewBox="0 0 13 32">
<path fill="#43ffd2" style="fill: var(--color2, #43ffd2)" d="M9.499 31.313v0zM9.143 32l-0.133-2.93 2.603 1.35-2.471 1.58zM0.378 0.286c11.017 6.152 15.155 19.942 9.347 31.143l-0.451-0.234c5.682-10.958 1.633-24.448-9.144-30.466l0.248-0.443z"></path>
</symbol>
<symbol id="icon-search" viewBox="0 0 32 32">
<path fill="#fff" style="fill: var(--color1, #fff)" d="M28.354 27.647l-5.733-5.733c1.94-2.125 2.972-4.924 2.874-7.8s-1.317-5.599-3.397-7.587c-2.080-1.988-4.856-3.083-7.733-3.051s-5.628 1.19-7.662 3.224c-2.035 2.034-3.193 4.785-3.225 7.662s1.062 5.653 3.049 7.734c1.988 2.081 4.711 3.3 7.587 3.399s5.676-0.933 7.801-2.873l5.733 5.733c0.094 0.094 0.221 0.146 0.354 0.146s0.26-0.053 0.353-0.146c0.094-0.094 0.146-0.221 0.146-0.354s-0.053-0.26-0.146-0.353zM4.501 14.5c0-1.978 0.587-3.911 1.685-5.556s2.661-2.926 4.488-3.683c1.827-0.757 3.838-0.955 5.778-0.569s3.722 1.338 5.12 2.737c1.399 1.399 2.351 3.18 2.737 5.12s0.188 3.95-0.569 5.778c-0.757 1.827-2.039 3.389-3.683 4.488s-3.578 1.685-5.556 1.685c-2.651-0.003-5.193-1.058-7.068-2.932s-2.929-4.417-2.932-7.068z"></path>
</symbol>
<symbol id="icon-soc1" viewBox="0 0 32 32">
<path fill="#43ffd2" style="fill: var(--color2, #43ffd2)" d="M15.985 10.657c-2.936 0-5.332 2.396-5.332 5.332s2.396 5.332 5.332 5.332c2.936 0 5.332-2.396 5.332-5.332s-2.396-5.332-5.332-5.332zM31.977 15.989c0-2.208 0.020-4.396-0.104-6.6-0.124-2.56 0.064-5.608-1.808-7.48-1.876-1.876-4.916-1.68-7.476-1.804-2.208-0.124-4.396-0.104-6.6-0.104-2.208 0-4.396-0.020-6.6 0.104-2.56 0.124-5.612-0.068-7.484 1.804-1.876 1.876-1.676 4.92-1.8 7.48-0.124 2.208-0.104 4.396-0.104 6.6s-0.020 4.396 0.104 6.6c0.124 2.56-0.072 5.608 1.8 7.48 1.876 1.876 4.924 1.68 7.484 1.804 2.208 0.124 4.396 0.104 6.6 0.104 2.208 0 4.396 0.020 6.6-0.104 2.56-0.124 5.604 0.068 7.476-1.804 1.876-1.876 1.684-4.92 1.808-7.48 0.128-2.204 0.104-4.392 0.104-6.6zM15.985 24.193c-4.54 0-8.204-3.664-8.204-8.204s3.664-8.204 8.204-8.204c4.54 0 8.204 3.664 8.204 8.204s-3.664 8.204-8.204 8.204zM24.525 9.365c-1.060 0-1.916-0.856-1.916-1.916s0.856-1.916 1.916-1.916c1.060 0 1.916 0.856 1.916 1.916 0 0.252-0.049 0.501-0.145 0.734s-0.237 0.444-0.415 0.622c-0.178 0.178-0.389 0.319-0.622 0.415s-0.482 0.146-0.734 0.145z"></path>
</symbol>
<symbol id="icon-star" viewBox="0 0 36 32">
<path fill="#fff" style="fill: var(--color1, #fff)" d="M21.084 13.23l-3.307-7.79-3.31 7.799-8.432 0.738 6.393 5.559-1.902 8.249 7.262-4.364 7.253 4.359-1.904-8.256 6.388-5.552-8.441-0.741zM27.717 31.458l-9.929-5.966-9.938 5.972 2.606-11.289-8.75-7.605 11.54-1.008 4.532-10.672 4.526 10.663 11.548 1.012-8.743 7.6 2.608 11.294z"></path>
</symbol>
<symbol id="icon-triangle-down" viewBox="0 0 40 32">
<path fill="#d978ac" style="fill: var(--color3, #d978ac)" d="M18.356 31.138c0.183 0.266 0.429 0.484 0.715 0.635s0.605 0.229 0.929 0.229c0.324 0 0.642-0.079 0.929-0.229s0.532-0.368 0.715-0.635l18-26c0.208-0.3 0.331-0.651 0.353-1.016s-0.055-0.728-0.224-1.052c-0.169-0.323-0.424-0.594-0.737-0.783s-0.671-0.288-1.036-0.288h-36c-0.364 0.002-0.721 0.102-1.033 0.292s-0.565 0.46-0.734 0.782c-0.169 0.323-0.247 0.685-0.225 1.049s0.142 0.715 0.348 1.015l18 26z"></path>
</symbol>
<symbol id="icon-whatsapp" viewBox="0 0 32 32">
<path fill="#43ffd2" style="fill: var(--color2, #43ffd2)" d="M31.984 7.276c-0.013-0.686-0.068-1.372-0.165-2.051-0.115-0.605-0.31-1.191-0.581-1.744-0.592-1.169-1.542-2.119-2.71-2.712-0.549-0.269-1.132-0.464-1.733-0.579-0.685-0.098-1.375-0.155-2.067-0.168-0.293-0.011-0.672-0.016-0.848-0.016l-15.757-0.005c-0.176 0-0.555 0.005-0.848 0.016-0.686 0.013-1.371 0.068-2.051 0.165-0.605 0.115-1.191 0.31-1.744 0.581-1.169 0.592-2.119 1.542-2.712 2.711-0.269 0.549-0.464 1.132-0.579 1.733-0.099 0.685-0.155 1.375-0.17 2.067-0.010 0.293-0.016 0.672-0.016 0.848l-0.003 15.758c0 0.176 0.005 0.555 0.016 0.848 0.013 0.686 0.068 1.372 0.165 2.051 0.115 0.605 0.31 1.191 0.581 1.744 0.592 1.169 1.542 2.119 2.71 2.712 0.549 0.269 1.132 0.464 1.733 0.579 0.685 0.098 1.375 0.155 2.067 0.168 0.293 0.011 0.672 0.016 0.848 0.016l15.757 0.003c0.176 0 0.555-0.005 0.848-0.016 0.686-0.013 1.371-0.068 2.051-0.165 0.605-0.115 1.191-0.31 1.744-0.581 1.17-0.592 2.12-1.542 2.714-2.711 0.269-0.549 0.464-1.132 0.579-1.733 0.099-0.685 0.156-1.375 0.17-2.067 0.010-0.293 0.016-0.672 0.016-0.848l0.002-15.756c0-0.176-0.005-0.555-0.016-0.848zM16.347 27.133h-0.005c-1.905-0-3.779-0.478-5.451-1.389l-6.048 1.586 1.619-5.909c-1.254-2.176-1.755-4.704-1.425-7.193s1.471-4.8 3.247-6.575c1.777-1.774 4.089-2.913 6.578-3.24s5.017 0.177 7.191 1.434 3.873 3.195 4.833 5.515c0.96 2.32 1.128 4.892 0.478 7.318s-2.082 4.568-4.075 6.097c-1.992 1.528-4.433 2.357-6.944 2.357z"></path>
<path fill="#43ffd2" style="fill: var(--color2, #43ffd2)" d="M16.352 6.241c-1.694-0-3.358 0.453-4.817 1.313s-2.662 2.096-3.483 3.578-1.229 3.158-1.182 4.851c0.046 1.694 0.545 3.344 1.446 4.78l0.226 0.358-0.958 3.498 3.589-0.941 0.346 0.205c1.461 0.865 3.128 1.322 4.826 1.322h0.005c2.515 0 4.927-0.998 6.706-2.776s2.778-4.19 2.778-6.705c0-2.515-0.998-4.927-2.776-6.706s-4.19-2.778-6.705-2.779l0.002 0.002zM21.927 19.794c-0.21 0.346-0.489 0.646-0.82 0.879s-0.707 0.395-1.103 0.476c-0.599 0.103-1.214 0.064-1.795-0.112-0.552-0.172-1.094-0.373-1.624-0.602-1.968-0.988-3.646-2.471-4.869-4.303-0.667-0.848-1.072-1.872-1.165-2.947-0.008-0.444 0.077-0.884 0.249-1.293s0.427-0.778 0.749-1.083c0.095-0.109 0.212-0.196 0.343-0.258s0.273-0.095 0.417-0.099c0.189 0 0.379 0 0.546 0.010 0.176 0.008 0.41-0.067 0.64 0.49 0.24 0.57 0.81 1.973 0.88 2.115 0.045 0.075 0.071 0.159 0.075 0.247s-0.013 0.174-0.051 0.253c-0.072 0.171-0.168 0.331-0.285 0.475-0.144 0.166-0.299 0.371-0.427 0.499-0.144 0.142-0.291 0.296-0.126 0.581 0.428 0.733 0.962 1.398 1.586 1.974 0.676 0.601 1.452 1.080 2.293 1.414 0.285 0.144 0.451 0.118 0.618-0.072s0.712-0.832 0.902-1.117c0.19-0.285 0.379-0.237 0.64-0.142s1.664 0.784 1.949 0.928c0.285 0.144 0.475 0.213 0.546 0.331 0.078 0.458 0.020 0.929-0.166 1.355z"></path>
</symbol>
<symbol id="icon-mob-menu" viewBox="0 0 32 32">
<path d="M6.4 11.734v-2.134h19.2v2.134h-19.2zM6.4 17.066h19.2v-2.133h-19.2v2.133zM6.4 22.4h19.2v-2.134h-19.2v2.134z"></path>
</symbol>
<symbol id="icon-mob-menu-close" viewBox="0 0 32 32">
<path d="M23.734 10.304l-1.504-1.504-5.963 5.962-5.962-5.962-1.504 1.504 5.962 5.962-5.962 5.963 1.504 1.504 5.962-5.963 5.963 5.963 1.504-1.504-5.963-5.963 5.963-5.962z"></path>
</symbol>
</defs>
</svg>
